<?xml version="1.0" standalone="no"?>
<!DOCTYPE svg PUBLIC "-//W3C//DTD SVG 20010904//EN"
 "http://www.w3.org/TR/2001/REC-SVG-20010904/DTD/svg10.dtd">
<svg version="1.0" xmlns="http://www.w3.org/2000/svg"
 width="354.000000pt" height="455.000000pt" viewBox="0 0 354.000000 455.000000"
 preserveAspectRatio="xMidYMid meet">

<g transform="translate(0.000000,455.000000) scale(0.100000,-0.100000)"
fill="#000000" stroke="none">
<path d="M1929 4265 c-3 -2 -45 -5 -94 -6 -124 -2 -260 -18 -314 -36 -92 -31
-240 -108 -241 -125 0 -16 -45 -53 -74 -63 -16 -5 -37 -22 -45 -36 -34 -55
-71 -108 -80 -113 -21 -13 -74 -134 -88 -200 -8 -39 -18 -75 -22 -81 -5 -5
-14 -66 -20 -135 -6 -69 -17 -160 -23 -203 -10 -66 -9 -93 6 -175 9 -53 23
-108 29 -122 7 -14 10 -42 7 -62 l-5 -36 -35 16 c-49 22 -72 23 -68 3 2 -9 11
-15 22 -13 12 2 16 -1 10 -9 -4 -7 -3 -10 3 -6 6 4 24 2 41 -4 25 -9 30 -16
36 -56 3 -25 6 -74 6 -107 0 -57 11 -86 32 -86 4 0 8 32 8 70 0 40 4 70 10 70
6 0 10 9 10 20 0 11 -4 20 -8 20 -5 0 -6 21 -2 48 5 26 6 51 3 55 -3 5 -2 19
1 33 7 27 46 35 46 9 0 -12 13 -15 60 -15 57 0 60 -1 60 -25 0 -18 5 -25 18
-25 11 0 24 -11 30 -25 7 -15 20 -25 32 -25 11 0 20 -7 20 -15 0 -10 10 -15
30 -15 17 0 30 4 30 9 0 5 8 11 18 13 14 3 13 7 -9 27 -22 18 -25 28 -20 49 8
30 41 44 41 17 0 -9 11 -27 25 -41 19 -19 31 -23 48 -18 26 8 57 41 57 61 0
19 18 16 37 -7 25 -29 32 -25 29 15 -3 34 7 47 17 23 4 -10 6 -10 6 0 1 7 16
12 39 13 32 1 34 2 12 9 -23 7 -23 7 10 11 30 3 35 8 38 32 2 19 -1 27 -12 27
-9 0 -16 3 -16 8 0 22 -137 72 -197 72 -24 0 -43 5 -46 13 -5 16 -229 15 -235
-2 -2 -6 -12 -11 -22 -11 -10 0 -21 -8 -23 -17 -4 -17 -5 -17 -6 0 -1 12 -9
17 -30 17 -26 0 -29 3 -34 48 -7 60 5 117 31 145 10 12 26 39 36 60 9 20 22
37 29 37 11 1 39 51 67 120 12 31 30 58 52 81 10 10 20 30 24 44 5 19 13 25
34 25 15 0 41 7 56 15 39 20 173 20 200 0 10 -8 35 -15 55 -15 20 0 66 -10
104 -21 66 -21 69 -21 101 -4 18 9 37 14 43 11 6 -4 27 -3 46 3 22 6 35 6 35
0 0 -6 8 -6 19 1 31 16 88 11 201 -18 99 -26 150 -48 150 -64 0 -3 14 -20 30
-36 20 -20 30 -40 30 -60 0 -51 22 -132 37 -132 7 0 13 -11 13 -25 0 -23 14
-58 64 -163 19 -41 20 -60 19 -325 -2 -186 -6 -283 -13 -285 -15 -5 -12 -71 4
-88 9 -9 17 -10 21 -4 3 5 1 10 -4 10 -18 0 -12 43 14 109 14 34 23 66 20 71
-8 13 14 109 37 160 11 25 24 54 28 65 24 55 40 309 43 665 1 103 -43 277 -76
301 -5 3 -7 12 -6 20 4 18 -22 59 -38 59 -7 0 -15 11 -19 25 -3 14 -10 25 -15
25 -5 0 -15 11 -21 25 -6 14 -17 25 -24 25 -7 0 -15 8 -19 19 -5 16 -104 91
-120 91 -3 0 -52 22 -108 49 -97 46 -190 71 -266 71 -18 0 -40 4 -50 10 -10 5
-20 7 -22 5z m-449 -1253 c19 -6 29 -10 23 -11 -18 -1 -16 -21 2 -21 8 0 15
-4 15 -9 0 -5 10 -11 22 -14 12 -4 19 -9 16 -12 -3 -4 -17 -1 -30 6 -42 23
-213 45 -223 29 -8 -13 -25 -13 -25 0 0 6 7 10 15 10 7 0 18 6 22 14 15 26 87
29 163 8z m-13 -99 c-9 -9 -19 -14 -23 -11 -10 10 6 28 24 28 15 0 15 -1 -1
-17z"/>
<path d="M2400 3494 c0 -8 5 -12 10 -9 6 3 10 10 10 16 0 5 -4 9 -10 9 -5 0
-10 -7 -10 -16z"/>
<path d="M2115 3059 c-44 -4 -95 -9 -113 -10 -44 -3 -73 -39 -69 -88 2 -29 7
-37 25 -39 13 -2 25 3 28 12 10 26 27 18 20 -9 -6 -24 -5 -25 21 -19 l28 7
-28 -25 c-36 -34 -34 -40 8 -22 38 16 59 18 51 6 -3 -5 4 -23 14 -40 31 -50
82 -40 114 22 l14 28 22 -22 c15 -15 18 -25 11 -34 -7 -9 -7 -16 1 -24 9 -9 8
-12 -5 -12 -9 0 -17 -4 -17 -10 0 -5 18 -10 40 -10 22 0 40 5 40 10 0 6 7 10
16 10 8 0 22 6 30 14 7 8 19 16 26 19 10 3 10 9 0 27 -10 16 -11 25 -3 33 8 8
11 7 11 -2 0 -17 61 -10 70 9 4 8 12 25 19 38 7 15 8 22 1 22 -13 0 -60 49
-60 61 0 5 -6 9 -14 9 -7 0 -26 10 -41 22 -32 25 -129 32 -260 17z m167 -104
c42 -46 43 -49 23 -41 -11 4 -48 10 -82 13 -35 3 -63 10 -63 16 0 6 -24 8 -66
4 -78 -8 -79 2 -2 13 93 13 175 11 190 -5z m-122 -74 c0 -5 -7 -11 -15 -15
-15 -5 -20 5 -8 17 9 10 23 9 23 -2z"/>
<path d="M930 2926 c0 -2 7 -6 15 -10 8 -3 15 -1 15 4 0 6 -7 10 -15 10 -8 0
-15 -2 -15 -4z"/>
<path d="M2690 2760 l-35 -29 44 4 c53 5 70 18 51 40 -17 20 -20 20 -60 -15z"/>
<path d="M882 2610 c0 -14 2 -19 5 -12 2 6 2 18 0 25 -3 6 -5 1 -5 -13z"/>
<path d="M901 2558 c-2 -32 33 -99 48 -93 10 4 12 -1 7 -19 -5 -20 -3 -23 14
-19 14 4 22 -2 30 -21 5 -14 17 -26 27 -26 17 -1 16 -2 -1 -15 -17 -13 -18
-15 -3 -15 10 0 17 -8 17 -19 0 -11 5 -23 10 -26 6 -3 10 -17 10 -31 0 -22 30
-147 45 -185 5 -14 -23 -55 -133 -194 -4 -5 -24 -38 -42 -73 -48 -86 -96 -112
-390 -213 -70 -24 -162 -73 -305 -164 -27 -18 -55 -34 -60 -36 -6 -2 -48 -26
-93 -54 l-81 -50 -1 -652 0 -653 1770 0 1770 0 0 438 0 439 -64 74 c-35 41
-76 86 -92 100 -70 64 -274 191 -464 288 -47 24 -111 61 -142 82 -32 22 -62
39 -67 39 -5 0 -11 3 -13 8 -6 15 -67 52 -175 106 l-111 55 -32 68 c-28 61
-31 75 -27 133 4 49 3 57 -3 30 -8 -31 -9 -28 -6 20 2 30 0 66 -5 80 l-7 25
-1 -28 c-1 -16 -5 -26 -11 -22 -10 6 -100 -82 -100 -97 0 -5 -6 -8 -13 -8 -7
0 -23 -9 -35 -20 -12 -11 -26 -20 -31 -20 -6 0 -16 -9 -23 -20 -7 -11 -18 -20
-25 -20 -7 0 -13 -7 -13 -15 0 -8 -8 -15 -18 -15 -10 0 -28 -7 -40 -16 -12 -8
-22 -10 -22 -5 0 17 -18 13 -39 -8 -22 -22 -55 -28 -219 -41 -127 -10 -199 -3
-194 19 1 7 -2 10 -7 7 -5 -4 -12 0 -14 6 -4 10 -6 10 -6 1 -2 -22 -19 -14
-25 12 -4 15 -16 27 -31 31 -14 3 -25 10 -25 15 0 5 -7 9 -15 9 -8 0 -19 9
-25 19 -5 11 -20 23 -32 27 -32 10 -85 63 -92 91 -4 12 -11 23 -16 23 -6 0
-10 8 -10 18 0 10 -11 29 -25 42 -14 13 -25 28 -25 35 0 6 -8 18 -17 27 -28
26 -38 40 -53 76 -8 17 -19 32 -23 32 -5 0 -5 4 -2 10 3 5 3 26 -1 46 -4 21
-10 31 -14 24 -5 -8 -9 -7 -14 5 -7 19 1 38 14 30 15 -9 21 12 11 37 -7 17
-10 18 -10 6 -1 -10 -5 -18 -9 -18 -5 0 -6 40 -4 89 4 80 2 93 -17 120 -27 38
-41 39 -41 6 0 -16 -6 -25 -15 -25 -25 0 -18 46 12 69 14 12 23 24 19 28 -3 4
-12 1 -18 -5 -7 -7 -22 -12 -34 -12 -13 0 -24 -8 -27 -20 -8 -30 -25 -24 -41
13 -9 19 -15 25 -15 15z m196 -400 c-3 -8 -6 -5 -6 6 -1 11 2 17 5 13 3 -3 4
-12 1 -19z m1240 -430 c-3 -8 -6 -5 -6 6 -1 11 2 17 5 13 3 -3 4 -12 1 -19z
m-1057 -49 c0 -6 8 -9 17 -7 9 2 26 -5 37 -15 26 -23 134 -67 164 -67 12 0 22
-6 22 -14 0 -9 19 -18 53 -26 74 -16 180 -28 208 -25 13 2 77 9 141 16 91 9
122 16 134 31 10 10 26 18 36 18 11 0 35 12 54 26 23 18 48 27 74 28 22 0 42
6 45 13 10 27 23 11 27 -34 5 -53 -6 -98 -22 -88 -5 3 -10 -1 -10 -10 0 -10 5
-13 13 -9 6 4 4 -2 -5 -13 -10 -11 -18 -30 -18 -42 0 -12 -7 -29 -15 -38 -9
-8 -19 -28 -22 -44 -3 -16 -9 -29 -13 -29 -4 0 -10 -15 -14 -32 -4 -18 -20
-49 -36 -70 -17 -20 -30 -43 -30 -51 0 -8 -9 -26 -21 -41 -11 -14 -18 -34 -15
-43 3 -10 2 -35 -3 -55 -5 -22 -5 -36 0 -32 5 3 9 16 9 29 0 13 4 26 9 30 15
9 33 -33 26 -58 -7 -23 -106 -228 -115 -237 -9 -9 -70 -138 -70 -149 0 -6 -4
-11 -9 -11 -5 0 -12 -11 -15 -24 -3 -13 -17 -31 -30 -40 -24 -15 -25 -15 -47
24 -21 37 -62 64 -124 84 -12 3 -35 25 -53 48 -18 24 -64 76 -103 115 -38 40
-76 88 -85 108 -8 19 -18 35 -22 35 -10 0 -62 95 -62 114 0 9 -6 16 -12 16
-11 0 -28 30 -52 90 -4 8 -15 29 -25 45 -11 17 -20 37 -20 46 -1 9 -7 22 -15
28 -8 7 -22 34 -32 62 -10 27 -22 49 -26 49 -4 0 -8 11 -8 24 0 14 -4 27 -9
30 -13 9 -41 101 -41 138 0 23 3 29 9 19 10 -16 31 -6 31 14 0 14 41 33 73 34
9 1 17 -4 17 -10z"/>
<path d="M2685 2520 c-4 -12 -5 -24 -2 -27 3 -2 8 5 12 17 4 12 5 24 2 27 -3
2 -8 -5 -12 -17z"/>
<path d="M1657 2450 c-14 -11 -32 -20 -41 -20 -9 0 -16 -4 -16 -10 0 -5 5 -10
10 -10 6 0 20 -8 31 -19 38 -35 147 -42 257 -15 37 10 68 18 70 20 2 1 -4 14
-13 28 -20 30 -47 27 -103 -11 -46 -30 -62 -29 -103 7 -54 49 -64 52 -92 30z
m23 -40 c0 -5 -2 -10 -4 -10 -3 0 -8 5 -11 10 -3 6 -1 10 4 10 6 0 11 -4 11
-10z m247 -16 c-3 -3 -12 -4 -19 -1 -8 3 -5 6 6 6 11 1 17 -2 13 -5z"/>
<path d="M2640 2459 c0 -7 -8 -18 -17 -25 -16 -12 -16 -13 -2 -14 9 0 21 11
27 25 7 15 8 25 2 25 -6 0 -10 -5 -10 -11z"/>
<path d="M1980 2440 c0 -5 5 -10 10 -10 6 0 10 5 10 10 0 6 -4 10 -10 10 -5 0
-10 -4 -10 -10z"/>
<path d="M2508 2263 c7 -3 16 -2 19 1 4 3 -2 6 -13 5 -11 0 -14 -3 -6 -6z"/>
<path d="M1649 2175 c-3 -3 -38 -9 -78 -14 -71 -9 -106 -25 -95 -42 3 -5 14
-9 25 -9 10 0 19 -4 19 -9 0 -6 20 -13 44 -16 33 -5 50 -3 70 10 24 16 40 16
194 5 92 -7 169 -13 172 -15 3 -2 20 3 39 11 28 12 32 16 21 29 -9 11 -22 14
-42 10 -17 -4 -35 -2 -43 5 -7 6 -71 16 -142 20 -70 5 -139 12 -153 15 -14 3
-28 3 -31 0z"/>
<path d="M2426 2155 c-9 -26 -7 -32 5 -12 6 10 9 21 6 23 -2 3 -7 -2 -11 -11z"/>
<path d="M2370 2025 c0 -8 2 -15 4 -15 2 0 6 7 10 15 3 8 1 15 -4 15 -6 0 -10
-7 -10 -15z"/>
<path d="M1740 1991 c-40 -11 -10 -19 50 -13 40 4 50 7 35 13 -24 9 -52 9 -85
0z"/>
<path d="M2348 1988 c5 -7 12 -22 15 -33 4 -16 5 -14 6 6 1 17 -5 29 -15 33
-13 5 -14 3 -6 -6z"/>
</g>
</svg>
